<svg t="1759679289937" class="icon" viewBox="0 0 1024 1024" version="1.1" xmlns="http://www.w3.org/2000/svg" p-id="5890" width="200" height="200"><path d="M864.256 607.232v224.768c0 52.736-43.008 96.256-96.256 96.256H192c-52.736 0-96.256-43.008-96.256-96.256v-640c0-52.736 43.008-96.256 96.256-96.256h361.984v0.512c0 9.728 4.096 18.944 11.264 25.088 6.144 5.632 14.336 8.704 22.528 8.704h7.68v15.872c-18.944 2.56-37.376 7.168-54.784 13.824h-348.16c-17.408 0-32.256 14.336-32.256 32.256v640c0 17.92 14.336 32.256 32.256 32.256H768c17.92 0 32.256-14.336 32.256-32.256v-173.568c22.528-12.8 44.032-29.184 62.464-49.152 0.512-0.512 1.024-1.024 1.536-2.048z" fill="#666666" p-id="5891"></path><path d="M425.984 288.256c-9.728 20.48-16.384 41.984-19.968 64H256c-17.92 0-32.256-14.336-32.256-32.256s14.336-32.256 32.256-32.256h169.984zM443.904 544.256H256c-17.92 0-32.256-14.336-32.256-32.256s14.336-32.256 32.256-32.256h152.576c8.704 23.04 20.48 44.544 35.328 64.512zM576 672.256H256c-17.92 0-32.256 14.336-32.256 32.256s14.336 32.256 32.256 32.256h320c17.92 0 32.256-14.336 32.256-32.256s-14.336-32.256-32.256-32.256z" fill="#666666" p-id="5892"></path><path d="M885.248 253.952c4.608-8.192 7.168-17.408 7.168-26.112 0.512-11.776-3.072-29.696-20.992-46.08-0.512-0.512-1.024-0.512-1.024-1.024-19.968-16.896-38.912-17.92-51.2-15.872-7.68 1.536-15.36 4.608-22.016 9.216-27.136-14.336-55.808-24.064-86.528-28.16v-15.872h7.168c18.432 0 33.792-15.36 34.304-33.792 0-9.216-3.584-17.408-9.728-24.064-6.656-6.656-14.848-10.24-24.064-10.24h-82.944c-18.432 0-33.792 14.848-34.304 33.28v0.512c0 9.728 4.096 18.944 11.264 25.088 6.144 5.632 14.336 8.704 22.528 8.704h7.68v15.872c-18.944 2.56-37.376 7.168-54.784 13.824-37.376 13.824-70.656 36.352-97.792 65.536-17.408 18.944-31.232 39.936-41.984 62.464-9.728 20.48-16.384 41.984-19.968 64-3.072 17.408-4.096 35.84-3.072 53.76 1.024 25.6 6.144 50.688 14.848 74.24 8.192 23.04 19.968 44.544 34.816 64 9.216 12.288 19.968 24.064 32.256 34.816 48.128 43.52 109.056 65.024 169.472 65.024 43.008 0 86.016-10.752 124.416-32.256 22.528-12.8 44.032-29.184 62.464-49.152 0.512-0.512 1.024-1.536 1.536-2.048 75.776-84.48 84.48-211.968 20.48-305.664z m-72.704 262.656l-12.288 12.288c-63.488 57.344-158.72 63.488-228.864 15.36-6.656-4.608-13.312-9.728-19.456-15.36-15.872-14.336-28.672-30.72-38.4-48.64-12.8-23.552-19.968-50.176-21.504-77.312V394.24c0-45.568 16.896-88.576 47.616-122.368 19.456-20.992 43.008-36.864 68.096-46.592 20.48-8.192 42.496-12.288 64-12.8H677.888c43.52 0.512 87.04 16.384 121.856 47.616 36.352 32.768 57.344 77.824 59.904 126.464 2.56 47.616-14.336 94.208-47.104 130.048z" fill="#519258" p-id="5893"></path><path d="M796.16 296.448c0.512 9.216-2.56 17.92-8.704 24.576L729.6 384l-3.072 3.584c2.048 14.336-2.048 28.16-12.8 39.936-10.24 11.264-24.064 16.896-37.888 16.896-12.288 0-24.064-4.096-33.792-12.8-10.24-9.216-16.384-22.016-16.896-35.328 0-5.12 0.512-10.24 1.536-15.36 2.048-7.68 6.144-15.36 11.776-21.504 11.264-11.776 24.064-17.92 38.4-16.896l20.48-22.016 40.96-44.544c1.024-1.024 1.536-2.048 2.56-2.56 12.8-11.264 32.256-11.264 45.568 0 5.632 5.632 9.216 14.336 9.728 23.04z" fill="#519258" p-id="5894"></path></svg>